<mxfile host="app.diagrams.net" agent="Mozilla/5.0 (X11; Ubuntu; Linux x86_64; rv:131.0) Gecko/20100101 Firefox/131.0" version="24.7.13">
  <diagram name="Page-1" id="b_PFSjgRnYWqNBcnfu1e">
    <mxGraphModel dx="3007" dy="1845" grid="1" gridSize="10" guides="1" tooltips="1" connect="1" arrows="1" fold="1" page="0" pageScale="1" pageWidth="850" pageHeight="1100" background="none" math="0" shadow="0">
      <root>
        <mxCell id="0" />
        <mxCell id="1" parent="0" />
        <mxCell id="tQddnmzMiFavjvR3CnS6-4" style="edgeStyle=orthogonalEdgeStyle;rounded=0;orthogonalLoop=1;jettySize=auto;html=1;entryX=0;entryY=0.5;entryDx=0;entryDy=0;" parent="1" source="tQddnmzMiFavjvR3CnS6-1" target="tQddnmzMiFavjvR3CnS6-2" edge="1">
          <mxGeometry relative="1" as="geometry" />
        </mxCell>
        <mxCell id="tQddnmzMiFavjvR3CnS6-1" value="&lt;font style=&quot;font-size: 23px;&quot;&gt;S0 (idle)&lt;br&gt;0&lt;/font&gt;" style="ellipse;whiteSpace=wrap;html=1;aspect=fixed;" parent="1" vertex="1">
          <mxGeometry x="240" y="100" width="150" height="150" as="geometry" />
        </mxCell>
        <mxCell id="tQddnmzMiFavjvR3CnS6-7" style="edgeStyle=orthogonalEdgeStyle;rounded=0;orthogonalLoop=1;jettySize=auto;html=1;" parent="1" source="tQddnmzMiFavjvR3CnS6-2" edge="1">
          <mxGeometry relative="1" as="geometry">
            <mxPoint x="715" y="400" as="targetPoint" />
          </mxGeometry>
        </mxCell>
        <mxCell id="tQddnmzMiFavjvR3CnS6-23" style="edgeStyle=orthogonalEdgeStyle;rounded=0;orthogonalLoop=1;jettySize=auto;html=1;exitX=0;exitY=1;exitDx=0;exitDy=0;entryX=1;entryY=1;entryDx=0;entryDy=0;" parent="1" source="tQddnmzMiFavjvR3CnS6-2" target="tQddnmzMiFavjvR3CnS6-1" edge="1">
          <mxGeometry relative="1" as="geometry" />
        </mxCell>
        <mxCell id="tQddnmzMiFavjvR3CnS6-2" value="&lt;font style=&quot;font-size: 23px;&quot;&gt;S1&lt;br&gt;0&lt;/font&gt;" style="ellipse;whiteSpace=wrap;html=1;aspect=fixed;" parent="1" vertex="1">
          <mxGeometry x="640" y="100" width="150" height="150" as="geometry" />
        </mxCell>
        <mxCell id="tQddnmzMiFavjvR3CnS6-3" value="&lt;span style=&quot;font-size: 20px;&quot;&gt;B = 1&lt;/span&gt;" style="text;html=1;align=center;verticalAlign=middle;whiteSpace=wrap;rounded=0;" parent="1" vertex="1">
          <mxGeometry x="490" y="130" width="60" height="30" as="geometry" />
        </mxCell>
        <mxCell id="tQddnmzMiFavjvR3CnS6-25" style="edgeStyle=orthogonalEdgeStyle;rounded=0;orthogonalLoop=1;jettySize=auto;html=1;entryX=0.5;entryY=1;entryDx=0;entryDy=0;curved=1;exitX=0.042;exitY=0.358;exitDx=0;exitDy=0;exitPerimeter=0;" parent="1" source="tQddnmzMiFavjvR3CnS6-5" target="tQddnmzMiFavjvR3CnS6-1" edge="1">
          <mxGeometry relative="1" as="geometry">
            <Array as="points">
              <mxPoint x="646" y="420" />
              <mxPoint x="315" y="420" />
            </Array>
          </mxGeometry>
        </mxCell>
        <mxCell id="tQddnmzMiFavjvR3CnS6-5" value="&lt;span style=&quot;font-size: 23px;&quot;&gt;S2&lt;/span&gt;&lt;div&gt;&lt;span style=&quot;font-size: 23px;&quot;&gt;0&lt;/span&gt;&lt;/div&gt;" style="ellipse;whiteSpace=wrap;html=1;aspect=fixed;" parent="1" vertex="1">
          <mxGeometry x="640" y="400" width="150" height="150" as="geometry" />
        </mxCell>
        <mxCell id="tQddnmzMiFavjvR3CnS6-9" value="&lt;span style=&quot;font-size: 20px;&quot;&gt;A = 0 AND B = 1&lt;/span&gt;" style="text;html=1;align=center;verticalAlign=middle;whiteSpace=wrap;rounded=0;" parent="1" vertex="1">
          <mxGeometry x="740" y="320" width="160" height="30" as="geometry" />
        </mxCell>
        <mxCell id="tQddnmzMiFavjvR3CnS6-11" style="edgeStyle=orthogonalEdgeStyle;rounded=0;orthogonalLoop=1;jettySize=auto;html=1;exitX=1;exitY=0;exitDx=0;exitDy=0;entryX=0;entryY=0;entryDx=0;entryDy=0;curved=1;" parent="1" source="tQddnmzMiFavjvR3CnS6-1" target="tQddnmzMiFavjvR3CnS6-1" edge="1">
          <mxGeometry relative="1" as="geometry">
            <Array as="points">
              <mxPoint x="368" y="20" />
              <mxPoint x="262" y="20" />
            </Array>
          </mxGeometry>
        </mxCell>
        <mxCell id="tQddnmzMiFavjvR3CnS6-16" style="edgeStyle=orthogonalEdgeStyle;rounded=0;orthogonalLoop=1;jettySize=auto;html=1;entryX=0.5;entryY=1;entryDx=0;entryDy=0;curved=1;" parent="1" source="tQddnmzMiFavjvR3CnS6-12" target="tQddnmzMiFavjvR3CnS6-15" edge="1">
          <mxGeometry relative="1" as="geometry" />
        </mxCell>
        <mxCell id="tQddnmzMiFavjvR3CnS6-27" style="edgeStyle=orthogonalEdgeStyle;rounded=0;orthogonalLoop=1;jettySize=auto;html=1;exitX=0.5;exitY=0;exitDx=0;exitDy=0;entryX=0;entryY=1;entryDx=0;entryDy=0;curved=1;" parent="1" source="tQddnmzMiFavjvR3CnS6-12" target="tQddnmzMiFavjvR3CnS6-1" edge="1">
          <mxGeometry relative="1" as="geometry" />
        </mxCell>
        <mxCell id="tQddnmzMiFavjvR3CnS6-12" value="&lt;span style=&quot;font-size: 23px;&quot;&gt;S3&lt;/span&gt;&lt;div&gt;&lt;span style=&quot;font-size: 23px;&quot;&gt;0&lt;/span&gt;&lt;/div&gt;" style="ellipse;whiteSpace=wrap;html=1;aspect=fixed;" parent="1" vertex="1">
          <mxGeometry x="360" y="600" width="150" height="150" as="geometry" />
        </mxCell>
        <mxCell id="tQddnmzMiFavjvR3CnS6-13" style="edgeStyle=orthogonalEdgeStyle;rounded=0;orthogonalLoop=1;jettySize=auto;html=1;entryX=1.001;entryY=0.391;entryDx=0;entryDy=0;entryPerimeter=0;curved=1;" parent="1" source="tQddnmzMiFavjvR3CnS6-5" target="tQddnmzMiFavjvR3CnS6-12" edge="1">
          <mxGeometry relative="1" as="geometry">
            <Array as="points">
              <mxPoint x="715" y="659" />
            </Array>
          </mxGeometry>
        </mxCell>
        <mxCell id="tQddnmzMiFavjvR3CnS6-14" value="&lt;span style=&quot;font-size: 20px;&quot;&gt;A = 1 AND B = 0&lt;/span&gt;" style="text;html=1;align=center;verticalAlign=middle;whiteSpace=wrap;rounded=0;" parent="1" vertex="1">
          <mxGeometry x="530" y="670" width="150" height="30" as="geometry" />
        </mxCell>
        <mxCell id="TSoL59lhyGNRVLlthy6h-4" style="edgeStyle=none;curved=1;rounded=0;orthogonalLoop=1;jettySize=auto;html=1;entryX=0.5;entryY=1;entryDx=0;entryDy=0;fontSize=12;startSize=8;endSize=8;" parent="1" source="tQddnmzMiFavjvR3CnS6-15" target="TSoL59lhyGNRVLlthy6h-2" edge="1">
          <mxGeometry relative="1" as="geometry" />
        </mxCell>
        <mxCell id="Ctu_GQ60YnpbgzEwKwgF-7" style="edgeStyle=orthogonalEdgeStyle;rounded=0;orthogonalLoop=1;jettySize=auto;html=1;curved=1;" edge="1" parent="1">
          <mxGeometry relative="1" as="geometry">
            <mxPoint x="20" y="600" as="sourcePoint" />
            <mxPoint x="740" y="550" as="targetPoint" />
            <Array as="points">
              <mxPoint x="20" y="850" />
              <mxPoint x="740" y="850" />
            </Array>
          </mxGeometry>
        </mxCell>
        <mxCell id="tQddnmzMiFavjvR3CnS6-15" value="&lt;div&gt;&lt;span style=&quot;font-size: 23px;&quot;&gt;S4&lt;/span&gt;&lt;/div&gt;&lt;div&gt;&lt;span style=&quot;font-size: 23px;&quot;&gt;0&lt;/span&gt;&lt;/div&gt;" style="ellipse;whiteSpace=wrap;html=1;aspect=fixed;" parent="1" vertex="1">
          <mxGeometry x="-80" y="450" width="150" height="150" as="geometry" />
        </mxCell>
        <mxCell id="tQddnmzMiFavjvR3CnS6-20" value="&lt;span style=&quot;font-size: 20px;&quot;&gt;A = 1 AND B = 1&lt;/span&gt;" style="text;html=1;align=center;verticalAlign=middle;whiteSpace=wrap;rounded=0;" parent="1" vertex="1">
          <mxGeometry x="130" y="680" width="160" height="30" as="geometry" />
        </mxCell>
        <mxCell id="tQddnmzMiFavjvR3CnS6-21" value="&lt;span style=&quot;font-size: 20px;&quot;&gt;B = 0&lt;/span&gt;" style="text;html=1;align=center;verticalAlign=middle;whiteSpace=wrap;rounded=0;" parent="1" vertex="1">
          <mxGeometry x="70" y="140" width="100" height="30" as="geometry" />
        </mxCell>
        <mxCell id="tQddnmzMiFavjvR3CnS6-24" value="&lt;span style=&quot;font-size: 20px;&quot;&gt;B = 0&lt;/span&gt;" style="text;html=1;align=center;verticalAlign=middle;whiteSpace=wrap;rounded=0;" parent="1" vertex="1">
          <mxGeometry x="490" y="240" width="80" height="30" as="geometry" />
        </mxCell>
        <mxCell id="tQddnmzMiFavjvR3CnS6-26" value="&lt;span style=&quot;font-size: 20px;&quot;&gt;A = 1 OR B = 0&lt;/span&gt;" style="text;html=1;align=center;verticalAlign=middle;whiteSpace=wrap;rounded=0;" parent="1" vertex="1">
          <mxGeometry x="420" y="370" width="160" height="30" as="geometry" />
        </mxCell>
        <mxCell id="tQddnmzMiFavjvR3CnS6-28" value="&lt;span style=&quot;font-size: 20px;&quot;&gt;if A = 0 OR B = 1&lt;/span&gt;" style="text;html=1;align=center;verticalAlign=middle;whiteSpace=wrap;rounded=0;" parent="1" vertex="1">
          <mxGeometry x="440" y="530" width="170" height="30" as="geometry" />
        </mxCell>
        <mxCell id="tQddnmzMiFavjvR3CnS6-34" value="&lt;span style=&quot;font-size: 20px;&quot;&gt;Caio Madeira | 24280006&lt;/span&gt;" style="text;html=1;align=center;verticalAlign=middle;whiteSpace=wrap;rounded=0;" parent="1" vertex="1">
          <mxGeometry x="-310" y="-120" width="230" height="30" as="geometry" />
        </mxCell>
        <mxCell id="TSoL59lhyGNRVLlthy6h-7" style="edgeStyle=none;curved=1;rounded=0;orthogonalLoop=1;jettySize=auto;html=1;exitX=1;exitY=0;exitDx=0;exitDy=0;entryX=0;entryY=0.5;entryDx=0;entryDy=0;fontSize=12;startSize=8;endSize=8;" parent="1" source="TSoL59lhyGNRVLlthy6h-2" target="tQddnmzMiFavjvR3CnS6-1" edge="1">
          <mxGeometry relative="1" as="geometry" />
        </mxCell>
        <mxCell id="Ctu_GQ60YnpbgzEwKwgF-9" style="edgeStyle=orthogonalEdgeStyle;rounded=0;orthogonalLoop=1;jettySize=auto;html=1;entryX=0.5;entryY=0;entryDx=0;entryDy=0;curved=1;" edge="1" parent="1" source="TSoL59lhyGNRVLlthy6h-2" target="tQddnmzMiFavjvR3CnS6-2">
          <mxGeometry relative="1" as="geometry">
            <Array as="points">
              <mxPoint x="-5" y="-100" />
              <mxPoint x="715" y="-100" />
            </Array>
          </mxGeometry>
        </mxCell>
        <mxCell id="Ctu_GQ60YnpbgzEwKwgF-11" style="edgeStyle=orthogonalEdgeStyle;rounded=0;orthogonalLoop=1;jettySize=auto;html=1;entryX=0;entryY=0;entryDx=0;entryDy=0;curved=1;exitX=1;exitY=1;exitDx=0;exitDy=0;" edge="1" parent="1" source="TSoL59lhyGNRVLlthy6h-2" target="tQddnmzMiFavjvR3CnS6-12">
          <mxGeometry relative="1" as="geometry">
            <mxPoint x="-10" y="320" as="sourcePoint" />
            <mxPoint x="301.9669914110086" y="696.9669914110084" as="targetPoint" />
            <Array as="points">
              <mxPoint x="48" y="320" />
              <mxPoint x="220" y="320" />
              <mxPoint x="220" y="622" />
            </Array>
          </mxGeometry>
        </mxCell>
        <mxCell id="Ctu_GQ60YnpbgzEwKwgF-15" style="edgeStyle=orthogonalEdgeStyle;rounded=0;orthogonalLoop=1;jettySize=auto;html=1;entryX=1;entryY=1;entryDx=0;entryDy=0;curved=1;" edge="1" parent="1" source="TSoL59lhyGNRVLlthy6h-2" target="tQddnmzMiFavjvR3CnS6-5">
          <mxGeometry relative="1" as="geometry">
            <Array as="points">
              <mxPoint x="-250" y="245" />
              <mxPoint x="-250" y="1030" />
              <mxPoint x="768" y="1030" />
            </Array>
          </mxGeometry>
        </mxCell>
        <mxCell id="TSoL59lhyGNRVLlthy6h-2" value="&lt;div&gt;&lt;span style=&quot;font-size: 23px;&quot;&gt;S5&lt;/span&gt;&lt;/div&gt;&lt;div&gt;&lt;span style=&quot;font-size: 23px;&quot;&gt;1&lt;/span&gt;&lt;/div&gt;" style="ellipse;whiteSpace=wrap;html=1;aspect=fixed;" parent="1" vertex="1">
          <mxGeometry x="-80" y="170" width="150" height="150" as="geometry" />
        </mxCell>
        <mxCell id="TSoL59lhyGNRVLlthy6h-3" style="edgeStyle=none;curved=1;rounded=0;orthogonalLoop=1;jettySize=auto;html=1;exitX=0.5;exitY=0;exitDx=0;exitDy=0;fontSize=12;startSize=8;endSize=8;" parent="1" edge="1">
          <mxGeometry relative="1" as="geometry">
            <mxPoint x="-145" y="510" as="sourcePoint" />
            <mxPoint x="-145" y="510" as="targetPoint" />
          </mxGeometry>
        </mxCell>
        <mxCell id="TSoL59lhyGNRVLlthy6h-8" value="&lt;span style=&quot;font-size: 20px;&quot;&gt;A = 0 AND B = 1&lt;/span&gt;" style="text;html=1;align=center;verticalAlign=middle;whiteSpace=wrap;rounded=0;" parent="1" vertex="1">
          <mxGeometry x="-210" y="420" width="160" height="30" as="geometry" />
        </mxCell>
        <mxCell id="1OENyqT5GAdR2yC9RkHn-1" value="&lt;span style=&quot;font-size: 20px;&quot;&gt;B = 0&lt;/span&gt;" style="text;html=1;align=center;verticalAlign=middle;whiteSpace=wrap;rounded=0;" parent="1" vertex="1">
          <mxGeometry x="240" y="-20" width="160" height="30" as="geometry" />
        </mxCell>
        <mxCell id="Ctu_GQ60YnpbgzEwKwgF-1" style="edgeStyle=orthogonalEdgeStyle;rounded=0;orthogonalLoop=1;jettySize=auto;html=1;curved=1;exitX=0.5;exitY=0;exitDx=0;exitDy=0;" edge="1" parent="1" source="tQddnmzMiFavjvR3CnS6-2" target="tQddnmzMiFavjvR3CnS6-2">
          <mxGeometry relative="1" as="geometry">
            <mxPoint x="800" y="100" as="sourcePoint" />
            <Array as="points">
              <mxPoint x="920" y="100" />
              <mxPoint x="920" y="210" />
            </Array>
          </mxGeometry>
        </mxCell>
        <mxCell id="Ctu_GQ60YnpbgzEwKwgF-3" value="&lt;span style=&quot;font-size: 20px;&quot;&gt;if A = 1 AND B = 1&lt;br&gt;&lt;/span&gt;" style="text;html=1;align=center;verticalAlign=middle;whiteSpace=wrap;rounded=0;" vertex="1" parent="1">
          <mxGeometry x="740" y="40" width="220" height="30" as="geometry" />
        </mxCell>
        <mxCell id="Ctu_GQ60YnpbgzEwKwgF-4" value="&lt;span style=&quot;font-size: 20px;&quot;&gt;if A = 1 AND B = 0&lt;br&gt;&lt;/span&gt;" style="text;html=1;align=center;verticalAlign=middle;whiteSpace=wrap;rounded=0;" vertex="1" parent="1">
          <mxGeometry x="890" y="450" width="170" height="30" as="geometry" />
        </mxCell>
        <mxCell id="Ctu_GQ60YnpbgzEwKwgF-6" style="edgeStyle=orthogonalEdgeStyle;rounded=0;orthogonalLoop=1;jettySize=auto;html=1;exitX=1;exitY=0;exitDx=0;exitDy=0;entryX=1;entryY=0.5;entryDx=0;entryDy=0;curved=1;" edge="1" parent="1" source="tQddnmzMiFavjvR3CnS6-5" target="tQddnmzMiFavjvR3CnS6-5">
          <mxGeometry relative="1" as="geometry">
            <Array as="points">
              <mxPoint x="768" y="390" />
              <mxPoint x="890" y="390" />
              <mxPoint x="890" y="475" />
            </Array>
          </mxGeometry>
        </mxCell>
        <mxCell id="Ctu_GQ60YnpbgzEwKwgF-8" value="&lt;span style=&quot;font-size: 20px;&quot;&gt;A = 0 AND B = 1&lt;br&gt;&lt;/span&gt;" style="text;html=1;align=center;verticalAlign=middle;whiteSpace=wrap;rounded=0;" vertex="1" parent="1">
          <mxGeometry x="320" y="860" width="150" height="30" as="geometry" />
        </mxCell>
        <mxCell id="Ctu_GQ60YnpbgzEwKwgF-10" value="&lt;span style=&quot;font-size: 20px;&quot;&gt;B = 1&lt;/span&gt;" style="text;html=1;align=center;verticalAlign=middle;whiteSpace=wrap;rounded=0;" vertex="1" parent="1">
          <mxGeometry x="250" y="-140" width="160" height="30" as="geometry" />
        </mxCell>
        <mxCell id="Ctu_GQ60YnpbgzEwKwgF-12" value="&lt;span style=&quot;font-size: 20px;&quot;&gt;A = 1 AND B = 0&lt;br&gt;&lt;/span&gt;" style="text;html=1;align=center;verticalAlign=middle;whiteSpace=wrap;rounded=0;rotation=60;" vertex="1" parent="1">
          <mxGeometry x="80" y="410" width="160" height="30" as="geometry" />
        </mxCell>
        <mxCell id="Ctu_GQ60YnpbgzEwKwgF-14" value="&lt;span style=&quot;font-size: 20px;&quot;&gt;if A = 0 AND B = 1&lt;br&gt;&lt;/span&gt;" style="text;html=1;align=center;verticalAlign=middle;whiteSpace=wrap;rounded=0;" vertex="1" parent="1">
          <mxGeometry x="100" y="990" width="220" height="30" as="geometry" />
        </mxCell>
      </root>
    </mxGraphModel>
  </diagram>
</mxfile>
